# xmcd
#
# Track frame offsets:
#	150
#	20675
#	36985
#	51197
#	85600
#	106140
#	120710
#	137390
#	152867
#	165065
#	181277
#	201122
#	218450
#	248440
#
# Disc length: 3556
#
# Revision: 7
# Processed by: cddbd v1.5.1PL0 Copyright (c) Steve Scherf et al.
# Submitted via: VisiTrax 2.9.6.190 - For more info visit www.synapsa.com
# Normalized: r6:DSETVAR1
#
DISCID=a60de20e
DTITLE=Various Artist - Feel Like Goin' Home
DYEAR=1993
DGENRE=Blues
TTITLE0=John Lee Hooker - Boogie at Russian Hill
TTITLE1=Larry McCray - Witchin' Moon
TTITLE2=The Kinsey Report - Too Early To Tell
TTITLE3=Jumpin' the Gun - More And More
TTITLE4=Steve Roux - In a Spin
TTITLE5=Johnny Winter - She Likes to Boogie real Slow
TTITLE6=John Hammond Jr. - I've Got Love If You Want It
TTITLE7=Johnny Winter - Johnny Guitar
TTITLE8=John Lee Hooker and John Hammond Jr. - Bottle Up and Go
TTITLE9=Jumpin' the Gun - Green All Over
TTITLE10=The Kinsey Report - Midnight Drive
TTITLE11=Larry MeCray - Not That Much
TTITLE12=Steve Roux - No Other Way
TTITLE13=Pops Staples - I Shall Not be Moved
EXTD=YEAR: 1993
EXTT0=
EXTT1=
EXTT2=
EXTT3=
EXTT4=
EXTT5=
EXTT6=
EXTT7=
EXTT8=
EXTT9=
EXTT10=
EXTT11=
EXTT12=
EXTT13=
PLAYORDER=
